<?xml version="1.0" encoding="UTF-8"?>
<svg version="1.1" xmlns="http://www.w3.org/2000/svg" width="300" height="102">
<path d="M0 0 C0.93457031 0.00322266 1.86914062 0.00644531 2.83203125 0.00976562 C3.80011719 0.01814453 4.76820312 0.02652344 5.765625 0.03515625 C6.74917969 0.03966797 7.73273437 0.04417969 8.74609375 0.04882812 C11.16933291 0.06059142 13.59244773 0.07702941 16.015625 0.09765625 C16.510625 2.57265625 16.510625 2.57265625 17.015625 5.09765625 C20.315625 5.09765625 23.615625 5.09765625 27.015625 5.09765625 C28.68229167 11.76432292 30.34895833 18.43098958 32.015625 25.09765625 C35.645625 17.17765625 39.275625 9.25765625 43.015625 1.09765625 C44.335625 1.09765625 45.655625 1.09765625 47.015625 1.09765625 C47.16185303 1.72333496 47.30808105 2.34901367 47.45874023 2.99365234 C48.12095292 5.82059916 48.7869905 8.64663112 49.453125 11.47265625 C49.68322266 12.4575 49.91332031 13.44234375 50.15039062 14.45703125 C50.48393555 15.86855469 50.48393555 15.86855469 50.82421875 17.30859375 C51.13057251 18.61256104 51.13057251 18.61256104 51.44311523 19.94287109 C51.9451421 22.12547718 51.9451421 22.12547718 53.015625 24.09765625 C53.25273193 23.55761963 53.48983887 23.01758301 53.73413086 22.46118164 C54.80472426 20.02644081 55.87887529 17.59328593 56.953125 15.16015625 C57.32630859 14.31001953 57.69949219 13.45988281 58.08398438 12.58398438 C58.44169922 11.77509766 58.79941406 10.96621094 59.16796875 10.1328125 C59.49788818 9.38394775 59.82780762 8.63508301 60.16772461 7.86352539 C61.015625 6.09765625 61.015625 6.09765625 62.015625 5.09765625 C63.86850002 5.02539123 65.72396378 5.01384405 67.578125 5.03515625 C68.59003906 5.04417969 69.60195312 5.05320312 70.64453125 5.0625 C71.42699219 5.07410156 72.20945312 5.08570313 73.015625 5.09765625 C72.355625 7.40765625 71.695625 9.71765625 71.015625 12.09765625 C77.945625 12.09765625 84.875625 12.09765625 92.015625 12.09765625 C92.345625 13.08765625 92.675625 14.07765625 93.015625 15.09765625 C93.44875 14.62328125 93.881875 14.14890625 94.328125 13.66015625 C97.46099178 10.75935368 100.88865665 10.83288158 105.0078125 10.86328125 C107.85015097 11.19507173 109.75532332 12.40242999 112.015625 14.09765625 C112.345625 13.43765625 112.675625 12.77765625 113.015625 12.09765625 C121.595625 12.09765625 130.175625 12.09765625 139.015625 12.09765625 C139.015625 14.07765625 139.015625 16.05765625 139.015625 18.09765625 C139.53125 17.49953125 140.046875 16.90140625 140.578125 16.28515625 C145.13169484 12.19861922 149.9953027 10.56652723 156.02734375 10.80078125 C160.55915383 11.47743659 164.22690006 13.57183962 168.015625 16.09765625 C168.015625 17.08765625 168.015625 18.07765625 168.015625 19.09765625 C168.45132813 18.68773438 168.88703125 18.2778125 169.3359375 17.85546875 C175.10812069 12.63301729 179.94666655 10.63708342 187.77734375 10.84765625 C193.94273319 11.53628613 198.12379943 14.42746556 202.015625 19.09765625 C203.328125 21.91015625 203.328125 21.91015625 204.015625 24.09765625 C205.75168013 22.36160112 205.67174482 19.89216129 206.078125 17.53515625 C206.25472656 16.52324219 206.43132812 15.51132813 206.61328125 14.46875 C206.74605469 13.68628906 206.87882813 12.90382813 207.015625 12.09765625 C209.39187677 11.98882029 211.76306476 11.90998929 214.140625 11.84765625 C214.80578125 11.81414063 215.4709375 11.780625 216.15625 11.74609375 C221.29024542 11.64542717 224.07778094 12.87147075 228.015625 16.09765625 C229.390625 18.34765625 229.390625 18.34765625 230.015625 20.09765625 C230.345625 17.45765625 230.675625 14.81765625 231.015625 12.09765625 C238.275625 12.09765625 245.535625 12.09765625 253.015625 12.09765625 C253.015625 15.39765625 253.015625 18.69765625 253.015625 22.09765625 C248.725625 22.09765625 244.435625 22.09765625 240.015625 22.09765625 C240.015625 23.08765625 240.015625 24.07765625 240.015625 25.09765625 C243.975625 25.09765625 247.935625 25.09765625 252.015625 25.09765625 C252.11328125 31.25 252.11328125 31.25 252.015625 33.09765625 C250.20446544 34.90881581 247.40284273 34.47965073 244.953125 34.66015625 C243.84839844 34.74394531 242.74367188 34.82773437 241.60546875 34.9140625 C240.75082031 34.97464844 239.89617187 35.03523438 239.015625 35.09765625 C238.685625 36.74765625 238.355625 38.39765625 238.015625 40.09765625 C242.305625 40.09765625 246.595625 40.09765625 251.015625 40.09765625 C250.685625 43.39765625 250.355625 46.69765625 250.015625 50.09765625 C245.85335996 50.321249 241.69432284 50.48391409 237.52783203 50.59204102 C236.11315009 50.63712855 234.69888369 50.69842586 233.28564453 50.77661133 C221.49513414 51.41225195 221.49513414 51.41225195 217.71582031 48.05419922 C216.2018084 45.78318136 215.01929817 43.63159771 214.015625 41.09765625 C213.355625 44.06765625 212.695625 47.03765625 212.015625 50.09765625 C208.715625 50.09765625 205.415625 50.09765625 202.015625 50.09765625 C202.015625 47.12765625 202.015625 44.15765625 202.015625 41.09765625 C201.314375 41.84015625 200.613125 42.58265625 199.890625 43.34765625 C193.57512766 49.38856675 188.69482389 51.22719653 180.015625 51.09765625 C174.71900491 49.92062956 170.28694322 47.98271431 167.203125 43.41015625 C166.81125 42.64703125 166.419375 41.88390625 166.015625 41.09765625 C165.850625 42.19078125 165.685625 43.28390625 165.515625 44.41015625 C164.015625 48.09765625 164.015625 48.09765625 162.34765625 49.23046875 C156.50714948 51.55763392 151.3971953 51.91888739 145.390625 49.84765625 C140.40679604 47.26344864 137.24349763 45.34917221 135.140625 40.03515625 C133.47712847 34.40917359 133.34427115 27.44036396 136.015625 22.09765625 C134.035625 22.09765625 132.055625 22.09765625 130.015625 22.09765625 C129.92998291 22.83927002 129.84434082 23.58088379 129.75610352 24.3449707 C129.36674149 27.70042478 128.97249182 31.05528687 128.578125 34.41015625 C128.37606445 36.16102539 128.37606445 36.16102539 128.16992188 37.94726562 C128.03779297 39.06552734 127.90566406 40.18378906 127.76953125 41.3359375 C127.64908447 42.36759033 127.5286377 43.39924316 127.40454102 44.4621582 C127.015625 47.09765625 127.015625 47.09765625 126.015625 50.09765625 C122.715625 50.09765625 119.415625 50.09765625 116.015625 50.09765625 C117.005625 41.18765625 117.995625 32.27765625 119.015625 23.09765625 C113.01926638 22.94149009 113.01926638 22.94149009 109.015625 26.09765625 C108.355625 26.09765625 107.695625 26.09765625 107.015625 26.09765625 C106.025625 23.62265625 106.025625 23.62265625 105.015625 21.09765625 C103.695625 21.09765625 102.375625 21.09765625 101.015625 21.09765625 C102.52730206 25.33035203 105.32115299 26.76033722 109.015625 29.09765625 C111.45295516 30.93855738 111.960258 31.77375931 112.484375 34.83984375 C112.56883891 43.30735067 112.56883891 43.30735067 109.828125 47.22265625 C104.60695414 50.70343682 101.3554376 51.43580672 95.17578125 50.58984375 C92.38953269 49.95500231 90.30078175 48.79309513 88.015625 47.09765625 C88.015625 48.08765625 88.015625 49.07765625 88.015625 50.09765625 C80.425625 50.09765625 72.835625 50.09765625 65.015625 50.09765625 C65.55208491 42.0507576 66.36153486 34.15872635 67.61328125 26.19140625 C67.97127676 23.43866408 68.04580543 20.86605098 68.015625 18.09765625 C67.31215942 19.71776611 67.31215942 19.71776611 66.59448242 21.37060547 C64.85343012 25.37389974 63.10074387 29.37200984 61.34448242 33.36865234 C60.5857583 35.0996794 59.83020348 36.83209917 59.07788086 38.56591797 C57.9964134 41.05678634 56.9036749 43.54243592 55.80859375 46.02734375 C55.47409714 46.80447723 55.13960052 47.58161072 54.79496765 48.3822937 C53.19951912 51.97384107 52.35449048 53.87174593 49.015625 56.09765625 C48.19584893 53.26625255 47.38468226 50.43282723 46.578125 47.59765625 C46.34802734 46.80617187 46.11792969 46.0146875 45.88085938 45.19921875 C44.45512507 40.15749165 43.53592074 35.31257448 43.015625 30.09765625 C42.355625 30.09765625 41.695625 30.09765625 41.015625 30.09765625 C40.88994141 31.08572266 40.88994141 31.08572266 40.76171875 32.09375 C39.76538705 36.10515877 37.97198834 39.50315642 36.078125 43.16015625 C35.71783203 43.86720703 35.35753906 44.57425781 34.98632812 45.30273438 C34.29816532 46.65244596 33.60770742 48.00099076 32.91455078 49.34814453 C31.93353777 51.25741645 30.96959412 53.17473419 30.015625 55.09765625 C28.530625 54.60265625 28.530625 54.60265625 27.015625 54.09765625 C26.0324707 51.38549805 26.0324707 51.38549805 25.19140625 47.796875 C25.04027878 47.16409134 24.88915131 46.53130768 24.73344421 45.87934875 C24.41572026 44.53826617 24.1042662 43.19568513 23.79858398 41.85180664 C23.33168322 39.80078692 22.84638646 37.75484378 22.35742188 35.70898438 C20.015625 25.74534261 20.015625 25.74534261 20.015625 21.09765625 C18.035625 20.76765625 16.055625 20.43765625 14.015625 20.09765625 C12.695625 27.35765625 11.375625 34.61765625 10.015625 42.09765625 C11.335625 42.42765625 12.655625 42.75765625 14.015625 43.09765625 C14.015625 43.75765625 14.015625 44.41765625 14.015625 45.09765625 C12.365625 45.09765625 10.715625 45.09765625 9.015625 45.09765625 C8.355625 47.73765625 7.695625 50.37765625 7.015625 53.09765625 C6.355625 53.09765625 5.695625 53.09765625 5.015625 53.09765625 C5.345625 50.12765625 5.675625 47.15765625 6.015625 44.09765625 C1.5370271 43.92202496 -2.01021632 43.87680287 -5.984375 46.09765625 C-6.314375 47.08765625 -6.644375 48.07765625 -6.984375 49.09765625 C-7.974375 49.09765625 -8.964375 49.09765625 -9.984375 49.09765625 C-10.02175781 49.7009375 -10.05914062 50.30421875 -10.09765625 50.92578125 C-10.47762302 55.54498515 -10.73616873 58.56699726 -13.984375 62.09765625 C-13.984375 62.75765625 -13.984375 63.41765625 -13.984375 64.09765625 C-10.684375 65.08765625 -7.384375 66.07765625 -3.984375 67.09765625 C-3.984375 67.75765625 -3.984375 68.41765625 -3.984375 69.09765625 C-6.06742038 69.15183951 -8.15087268 69.19053176 -10.234375 69.22265625 C-11.39453125 69.24585937 -12.5546875 69.2690625 -13.75 69.29296875 C-16.81223546 69.10805115 -18.42640251 68.70588648 -20.984375 67.09765625 C-20.984375 69.07765625 -20.984375 71.05765625 -20.984375 73.09765625 C-19.994375 73.09765625 -19.004375 73.09765625 -17.984375 73.09765625 C-17.984375 75.07765625 -17.984375 77.05765625 -17.984375 79.09765625 C-17.05625 79.19046875 -17.05625 79.19046875 -16.109375 79.28515625 C-15.408125 79.55328125 -14.706875 79.82140625 -13.984375 80.09765625 C-13.26709722 81.74317587 -12.60112272 83.41187914 -11.984375 85.09765625 C-10.994375 85.75765625 -10.004375 86.41765625 -8.984375 87.09765625 C-11.046875 88.41015625 -11.046875 88.41015625 -13.984375 89.09765625 C-16.58558457 87.74868187 -18.7667473 86.00213191 -20.984375 84.09765625 C-20.984375 85.74765625 -20.984375 87.39765625 -20.984375 89.09765625 C-19.499375 89.59265625 -19.499375 89.59265625 -17.984375 90.09765625 C-17.984375 90.75765625 -17.984375 91.41765625 -17.984375 92.09765625 C-18.644375 92.09765625 -19.304375 92.09765625 -19.984375 92.09765625 C-19.654375 93.41765625 -19.324375 94.73765625 -18.984375 96.09765625 C-20.469375 95.60265625 -20.469375 95.60265625 -21.984375 95.09765625 C-22.314375 94.10765625 -22.644375 93.11765625 -22.984375 92.09765625 C-25.30707459 90.85267016 -25.30707459 90.85267016 -28.046875 89.91015625 C-29.42552734 89.39388672 -29.42552734 89.39388672 -30.83203125 88.8671875 C-31.54230469 88.61324219 -32.25257812 88.35929687 -32.984375 88.09765625 C-32.3346875 88.91169922 -32.3346875 88.91169922 -31.671875 89.7421875 C-31.115 90.45761719 -30.558125 91.17304687 -29.984375 91.91015625 C-29.4275 92.61785156 -28.870625 93.32554688 -28.296875 94.0546875 C-26.984375 96.09765625 -26.984375 96.09765625 -26.984375 99.09765625 C-36.10140975 95.09651218 -41.02227766 84.90871699 -44.8046875 76.21142578 C-47.3880253 69.4932098 -47.52400362 62.98526573 -47.484375 55.84765625 C-47.47792969 54.64488037 -47.47148438 53.44210449 -47.46484375 52.20288086 C-47.28437607 43.46503936 -46.49903042 36.72852504 -41.984375 29.09765625 C-41.41460937 28.07027344 -40.84484375 27.04289062 -40.2578125 25.984375 C-32.85379753 13.75099225 -20.83247125 4.72701076 -7.10424805 0.52172852 C-4.68580795 0.03792908 -2.46617001 -0.01503762 0 0 Z M11.515625 7.09765625 C9.18232362 10.20872476 9.33040072 13.25739244 9.015625 17.09765625 C9.675625 17.09765625 10.335625 17.09765625 11.015625 17.09765625 C12.005625 13.46765625 12.995625 9.83765625 14.015625 6.09765625 C12.85383744 6.00520622 12.85383744 6.00520622 11.515625 7.09765625 Z M-2.984375 9.09765625 C-3.314375 9.75765625 -3.644375 10.41765625 -3.984375 11.09765625 C-3.654375 11.75765625 -3.324375 12.41765625 -2.984375 13.09765625 C-2.324375 13.09765625 -1.664375 13.09765625 -0.984375 13.09765625 C-1.644375 11.77765625 -2.304375 10.45765625 -2.984375 9.09765625 Z M16.015625 9.09765625 C15.355625 12.06765625 14.695625 15.03765625 14.015625 18.09765625 C15.665625 18.09765625 17.315625 18.09765625 19.015625 18.09765625 C18.355625 15.12765625 17.695625 12.15765625 17.015625 9.09765625 C16.685625 9.09765625 16.355625 9.09765625 16.015625 9.09765625 Z M-0.984375 18.09765625 C-3.2309129 20.81876123 -3.2309129 20.81876123 -2.859375 23.41015625 C-1.77171594 26.75082335 0.01643161 29.22381576 2.015625 32.09765625 C2.345625 33.08765625 2.675625 34.07765625 3.015625 35.09765625 C3.675625 35.09765625 4.335625 35.09765625 5.015625 35.09765625 C5.345625 36.74765625 5.675625 38.39765625 6.015625 40.09765625 C6.345625 40.09765625 6.675625 40.09765625 7.015625 40.09765625 C7.52011902 37.51512732 8.01936801 34.93176922 8.515625 32.34765625 C8.65871094 31.61804687 8.80179688 30.8884375 8.94921875 30.13671875 C9.60451379 26.70422093 10.015625 23.60596134 10.015625 20.09765625 C9.355625 20.09765625 8.695625 20.09765625 8.015625 20.09765625 C8.015625 21.08765625 8.015625 22.07765625 8.015625 23.09765625 C4.36245829 21.84788869 3.23496664 21.42666872 1.015625 18.09765625 C0.355625 18.09765625 -0.304375 18.09765625 -0.984375 18.09765625 Z M146.015625 25.09765625 C144.16537794 28.20943539 144.01411092 30.01135344 144.078125 33.66015625 C144.76261709 37.18231766 144.76261709 37.18231766 147.203125 39.53515625 C150.67537586 41.46418451 152.08897506 41.77726874 156.015625 41.09765625 C159.1374386 39.61863308 162.08398272 37.92178923 165.015625 36.09765625 C165.49779113 32.64882908 165.69641716 29.52780138 165.015625 26.09765625 C161.94446734 22.62159472 158.31074541 21.32620691 153.828125 20.53515625 C150.21832299 21.25711665 148.57417194 22.46803856 146.015625 25.09765625 Z M175.703125 25.78515625 C174.66357987 29.28180805 174.35212514 32.52605063 175.015625 36.09765625 C176.765625 39.34765625 176.765625 39.34765625 180.015625 41.09765625 C183.27596141 41.53393997 185.91918335 41.19512924 189.015625 40.09765625 C191.957006 37.63650072 193.59379889 35.88257334 194.48828125 32.09765625 C194.77043578 28.277718 194.10808261 26.23214005 191.953125 23.09765625 C186.20899394 19.1867585 179.98166714 20.2841735 175.703125 25.78515625 Z M-14.984375 22.09765625 C-15.314375 24.40765625 -15.644375 26.71765625 -15.984375 29.09765625 C-14.994375 29.42765625 -14.004375 29.75765625 -12.984375 30.09765625 C-12.654375 27.78765625 -12.324375 25.47765625 -11.984375 23.09765625 C-12.974375 22.76765625 -13.964375 22.43765625 -14.984375 22.09765625 Z M78.015625 22.09765625 C78.015625 23.08765625 78.015625 24.07765625 78.015625 25.09765625 C81.975625 25.09765625 85.935625 25.09765625 90.015625 25.09765625 C90.015625 28.06765625 90.015625 31.03765625 90.015625 34.09765625 C85.725625 34.09765625 81.435625 34.09765625 77.015625 34.09765625 C76.685625 36.07765625 76.355625 38.05765625 76.015625 40.09765625 C83.59132879 40.8894741 83.59132879 40.8894741 90.078125 37.59765625 C90.7175 36.77265625 91.356875 35.94765625 92.015625 35.09765625 C92.675625 35.09765625 93.335625 35.09765625 94.015625 35.09765625 C95.40500577 37.05913499 96.7416661 39.05932201 98.015625 41.09765625 C99.335625 40.76765625 100.655625 40.43765625 102.015625 40.09765625 C102.015625 39.10765625 102.015625 38.11765625 102.015625 37.09765625 C100.07235527 35.46773508 100.07235527 35.46773508 97.640625 33.91015625 C94.24145197 31.41280464 92.43263035 29.81384812 91.453125 25.66015625 C91.30875 24.48453125 91.164375 23.30890625 91.015625 22.09765625 C86.725625 22.09765625 82.435625 22.09765625 78.015625 22.09765625 Z M215.015625 22.09765625 C215.015625 23.41765625 215.015625 24.73765625 215.015625 26.09765625 C216.335625 25.76765625 217.655625 25.43765625 219.015625 25.09765625 C219.015625 24.10765625 219.015625 23.11765625 219.015625 22.09765625 C217.695625 22.09765625 216.375625 22.09765625 215.015625 22.09765625 Z M229.015625 26.09765625 C230.015625 28.09765625 230.015625 28.09765625 230.015625 28.09765625 Z M226.078125 30.97265625 C225.0571875 32.02453125 225.0571875 32.02453125 224.015625 33.09765625 C223.355625 33.75765625 222.695625 34.41765625 222.015625 35.09765625 C222.82410229 36.26711417 223.63751612 37.43316086 224.453125 38.59765625 C224.90558594 39.24734375 225.35804688 39.89703125 225.82421875 40.56640625 C226.21738281 41.07171875 226.61054688 41.57703125 227.015625 42.09765625 C227.345625 42.09765625 227.675625 42.09765625 228.015625 42.09765625 C228.345625 37.80765625 228.675625 33.51765625 229.015625 29.09765625 C227.68602422 28.98175268 227.68602422 28.98175268 226.078125 30.97265625 Z M-38.984375 34.09765625 C-39.314375 35.41765625 -39.644375 36.73765625 -39.984375 38.09765625 C-39.324375 37.76765625 -38.664375 37.43765625 -37.984375 37.09765625 C-38.314375 36.10765625 -38.644375 35.11765625 -38.984375 34.09765625 Z M203.015625 35.09765625 C204.015625 39.09765625 204.015625 39.09765625 204.015625 39.09765625 Z M-40.984375 38.09765625 C-39.984375 41.09765625 -39.984375 41.09765625 -39.984375 41.09765625 Z M-41.984375 41.09765625 C-40.984375 44.09765625 -40.984375 44.09765625 -40.984375 44.09765625 Z M-42.984375 45.09765625 C-42.984375 47.07765625 -42.984375 49.05765625 -42.984375 51.09765625 C-42.654375 51.09765625 -42.324375 51.09765625 -41.984375 51.09765625 C-41.984375 49.11765625 -41.984375 47.13765625 -41.984375 45.09765625 C-42.314375 45.09765625 -42.644375 45.09765625 -42.984375 45.09765625 Z M-43.984375 58.09765625 C-43.984375 60.40765625 -43.984375 62.71765625 -43.984375 65.09765625 C-43.654375 65.09765625 -43.324375 65.09765625 -42.984375 65.09765625 C-42.984375 62.78765625 -42.984375 60.47765625 -42.984375 58.09765625 C-43.314375 58.09765625 -43.644375 58.09765625 -43.984375 58.09765625 Z M-25.984375 65.09765625 C-27.31625293 66.20932489 -27.31625293 66.20932489 -27.171875 69.03515625 C-27.31716233 72.20658484 -27.31716233 72.20658484 -24.984375 74.09765625 C-24.654375 71.45765625 -24.324375 68.81765625 -23.984375 66.09765625 C-24.644375 65.76765625 -25.304375 65.43765625 -25.984375 65.09765625 Z M-38.984375 69.09765625 C-38.84269363 70.53557141 -38.69586457 71.97297995 -38.546875 73.41015625 C-38.46566406 74.21066406 -38.38445313 75.01117188 -38.30078125 75.8359375 C-38.03171807 78.25852804 -38.03171807 78.25852804 -36.984375 81.09765625 C-34.77176152 82.74739113 -34.77176152 82.74739113 -32.109375 84.22265625 C-31.22507812 84.74085937 -30.34078125 85.2590625 -29.4296875 85.79296875 C-26.95760363 87.19967902 -26.95760363 87.19967902 -23.984375 88.09765625 C-23.984375 85.78765625 -23.984375 83.47765625 -23.984375 81.09765625 C-25.6240625 80.44796875 -25.6240625 80.44796875 -27.296875 79.78515625 C-30.07233998 78.59086526 -32.13266737 77.56659976 -33.984375 75.09765625 C-34.314375 74.10765625 -34.644375 73.11765625 -34.984375 72.09765625 C-36.98102814 70.41227024 -36.98102814 70.41227024 -38.984375 69.09765625 Z " fill="#FDFDFE" transform="translate(46.984375,-0.09765625)"/>
<path d="M0 0 C3.81932529 -0.22122157 6.08312423 0.16871837 9.54296875 1.8671875 C12.17808355 4.24521793 13.16573677 5.79665236 14.10546875 9.1796875 C8.48046875 14.1796875 8.48046875 14.1796875 5.10546875 14.1796875 C4.44546875 12.8596875 3.78546875 11.5396875 3.10546875 10.1796875 C2.11546875 10.1796875 1.12546875 10.1796875 0.10546875 10.1796875 C1.26189007 13.64895145 2.12241519 14.15167201 5.04296875 16.1796875 C7.83242915 18.12370346 9.17331758 19.28146075 11.10546875 22.1796875 C11.87314991 26.8661132 11.5143196 30.37658761 9.35546875 34.6171875 C6.79529494 37.532941 4.9131236 38.97996533 1.01953125 39.41015625 C-1.61982741 39.36061197 -4.25634059 39.27280011 -6.89453125 39.1796875 C-8.05597656 39.19644531 -9.21742188 39.21320313 -10.4140625 39.23046875 C-19.6594207 39.10247125 -19.6594207 39.10247125 -23.2734375 36.40234375 C-25.0027908 34.40582523 -26.46289454 32.3951 -27.89453125 30.1796875 C-28.55453125 29.5196875 -29.21453125 28.8596875 -29.89453125 28.1796875 C-30.55453125 31.4796875 -31.21453125 34.7796875 -31.89453125 38.1796875 C-35.19453125 38.1796875 -38.49453125 38.1796875 -41.89453125 38.1796875 C-41.34645319 33.55282698 -40.79501206 28.92638424 -40.24047852 24.30029297 C-40.05238308 22.72716062 -39.86519999 21.15391891 -39.67895508 19.58056641 C-39.41077795 17.31643634 -39.13930032 15.05272251 -38.8671875 12.7890625 C-38.78485367 12.08787292 -38.70251984 11.38668335 -38.61769104 10.66424561 C-38.22340442 7.40979902 -37.69200414 4.36957904 -36.89453125 1.1796875 C-33.59453125 1.1796875 -30.29453125 1.1796875 -26.89453125 1.1796875 C-26.89453125 3.4896875 -26.89453125 5.7996875 -26.89453125 8.1796875 C-26.58644531 7.68597656 -26.27835938 7.19226563 -25.9609375 6.68359375 C-22.97520051 2.82927873 -20.8494468 1.34658436 -15.9609375 0.4921875 C-12.25888651 0.21498878 -8.56145242 0.1641402 -4.85009766 0.18261719 C-3.23225467 0.18019345 -1.61473643 0.10024005 0 0 Z M-13.76953125 8.89453125 C-14.47078125 9.62800781 -15.17203125 10.36148438 -15.89453125 11.1171875 C-19.69792108 15.08138242 -19.69792108 15.08138242 -21.89453125 16.1796875 C-21.89453125 16.8396875 -21.89453125 17.4996875 -21.89453125 18.1796875 C-22.88453125 18.6746875 -22.88453125 18.6746875 -23.89453125 19.1796875 C-21.25453125 22.1496875 -18.61453125 25.1196875 -15.89453125 28.1796875 C-12.78363504 26.62423939 -9.85601634 24.98948395 -6.89453125 23.1796875 C-6.64703125 23.9634375 -6.39953125 24.7471875 -6.14453125 25.5546875 C-5.11992554 28.27038033 -5.11992554 28.27038033 -2.89453125 29.5546875 C-0.85117864 30.44702857 -0.85117864 30.44702857 1.10546875 29.1796875 C1.10546875 27.8596875 1.10546875 26.5396875 1.10546875 25.1796875 C-0.80394721 23.48377864 -0.80394721 23.48377864 -3.26953125 22.1171875 C-6.42314599 20.23002439 -7.81022381 19.30614866 -9.89453125 16.1796875 C-10.08984375 13.91796875 -10.08984375 13.91796875 -10.01953125 11.4921875 C-10.00148437 10.68394531 -9.9834375 9.87570313 -9.96484375 9.04296875 C-9.94164062 8.42808594 -9.9184375 7.81320313 -9.89453125 7.1796875 C-12.07204607 6.95472456 -12.07204607 6.95472456 -13.76953125 8.89453125 Z " fill="#FDFDFE" transform="translate(155.89453125,59.8203125)"/>
<path d="M0 0 C3.63 0 7.26 0 11 0 C10.3107789 11.44107025 8.70084591 22.67172442 7 34 C11.29 34 15.58 34 20 34 C20.04898438 33.05640625 20.09796875 32.1128125 20.1484375 31.140625 C20.6240544 22.97313482 21.45601214 15.04972313 23 7 C26.3 7 29.6 7 33 7 C32.43700114 19.4636299 30.76435141 31.64954016 29 44 C17.78 44 6.56 44 -5 44 C-3.875 27.125 -3.875 27.125 -3.02734375 21.19140625 C-2.85009766 19.93134766 -2.67285156 18.67128906 -2.49023438 17.37304688 C-2.30783203 16.11556641 -2.12542969 14.85808594 -1.9375 13.5625 C-1.74884571 12.23379531 -1.56069298 10.90501932 -1.37304688 9.57617188 C-0.92025143 6.3833835 -0.46252506 3.19139076 0 0 Z " fill="#FEFEFE" transform="translate(50,54)"/>
<path d="M0 0 C3.79493366 1.26497789 4.48984824 2.74538147 6.75 6 C10.36432862 11.12029888 14.12447666 16.07485576 18 21 C18.99 15.72 19.98 10.44 21 5 C24.3 5 27.6 5 31 5 C30.51481232 13.56607211 29.55882664 22.05108924 28.5 30.5625 C28.36940186 31.62146484 28.23880371 32.68042969 28.10424805 33.77148438 C27.91342651 35.2787207 27.91342651 35.2787207 27.71875 36.81640625 C27.60466797 37.71818604 27.49058594 38.61996582 27.37304688 39.54907227 C27.03792062 41.75086052 26.58313854 43.85233579 26 46 C25.01 46 24.02 46 23 46 C21.51367188 44.48706055 21.51367188 44.48706055 19.96875 42.38671875 C19.12376953 41.2565332 19.12376953 41.2565332 18.26171875 40.10351562 C17.68035156 39.30623047 17.09898438 38.50894531 16.5 37.6875 C15.3456666 36.12748624 14.18948284 34.56883956 13.03125 33.01171875 C12.26651367 31.96697388 12.26651367 31.96697388 11.48632812 30.90112305 C10.09461709 29.12102222 8.63372803 27.55733725 7 26 C6.86722656 26.98742187 6.73445313 27.97484375 6.59765625 28.9921875 C6.42105469 30.27351563 6.24445313 31.55484375 6.0625 32.875 C5.80146484 34.78925781 5.80146484 34.78925781 5.53515625 36.7421875 C5 40 5 40 4 42 C1.03 42 -1.94 42 -5 42 C-5.26663183 34.28487889 -4.36619532 26.81376367 -3.34594727 19.1862793 C-3.05998911 17.04368668 -2.78427315 14.89994612 -2.50976562 12.75585938 C-1.14083183 2.28166366 -1.14083183 2.28166366 0 0 Z " fill="#FDFDFE" transform="translate(86,56)"/>
</svg>
