<?xml version="1.0" encoding="UTF-8"?>
<svg version="1.1" xmlns="http://www.w3.org/2000/svg" width="200" height="200">
<path d="M0 0 C66 0 132 0 200 0 C200 66 200 132 200 200 C134 200 68 200 0 200 C0 134 0 68 0 0 Z " fill="#FAFAFA" transform="translate(0,0)"/>
<path d="M0 0 C2.9156164 3.54039134 5.50127818 7.1626772 8 11 C11.11332248 10.33131686 11.11332248 10.33131686 12.1875 7.9375 C12.455625 7.298125 12.72375 6.65875 13 6 C13.66 6 14.32 6 15 6 C16.34106445 7.80078125 16.34106445 7.80078125 17.86328125 10.3125 C18.42080078 11.22386719 18.97832031 12.13523437 19.55273438 13.07421875 C20.13345703 14.03972656 20.71417969 15.00523438 21.3125 16 C22.45434193 17.87505186 23.59626783 19.75005259 24.73828125 21.625 C25.28693848 22.5325 25.8355957 23.44 26.40087891 24.375 C27.88278302 26.8075852 29.39408068 29.21857823 30.91796875 31.625 C33 35 33 35 33 36 C24.21245071 36.79629283 15.52053353 37.13773625 6.69921875 37.09765625 C5.4968306 37.0962413 4.29444244 37.09482635 3.05561829 37.09336853 C-0.73378126 37.08783156 -4.52311873 37.07529136 -8.3125 37.0625 C-10.90299393 37.05747684 -13.4934888 37.05291537 -16.08398438 37.04882812 C-22.38934361 37.03788289 -28.69466737 37.02120903 -35 37 C-33.8173317 33.33435074 -32.74093927 30.26492072 -30.5 27.125 C-28.3890708 24.08923301 -26.3789115 21.01864119 -24.453125 17.86328125 C-24.00775391 17.13544434 -23.56238281 16.40760742 -23.10351562 15.65771484 C-22.20630337 14.18598897 -21.31430388 12.71107164 -20.42773438 11.23291016 C-19.33819473 9.45499496 -18.17513169 7.72254016 -17 6 C-16.34 6 -15.68 6 -15 6 C-14.49339844 6.92232422 -14.49339844 6.92232422 -13.9765625 7.86328125 C-13.53054687 8.67152344 -13.08453125 9.47976562 -12.625 10.3125 C-12.18414062 11.11300781 -11.74328125 11.91351563 -11.2890625 12.73828125 C-10.26486665 14.53527943 -9.14732862 16.27900708 -8 18 C-7.29423828 16.80890625 -7.29423828 16.80890625 -6.57421875 15.59375 C-5.95160156 14.5728125 -5.32898438 13.551875 -4.6875 12.5 C-4.07261719 11.4790625 -3.45773438 10.458125 -2.82421875 9.40625 C-2.22222656 8.6121875 -1.62023437 7.818125 -1 7 C-0.01 7 0.98 7 2 7 C6 13.625 6 13.625 6 17 C6.66 17 7.32 17 8 17 C9.46582355 19.14281033 10.81123514 21.26706396 12.125 23.5 C12.49753906 24.12003906 12.87007812 24.74007812 13.25390625 25.37890625 C14.17578953 26.91537838 15.08873475 28.45720675 16 30 C15.34552918 26.4235799 13.85142154 23.8857348 11.91015625 20.83203125 C11.29076172 19.85685547 10.67136719 18.88167969 10.03320312 17.87695312 C9.38287109 16.86568359 8.73253906 15.85441406 8.0625 14.8125 C7.41603516 13.78962891 6.76957031 12.76675781 6.10351562 11.71289062 C3.26883942 6.61692729 3.26883942 6.61692729 -1 3 C-1.2475 3.70125 -1.495 4.4025 -1.75 5.125 C-3.16088026 8.37002459 -4.97895398 11.10316737 -7 14 C-7.33 13.34 -7.66 12.68 -8 12 C-6.6015625 9.43359375 -6.6015625 9.43359375 -4.625 6.4375 C-3.97789063 5.44621094 -3.33078125 4.45492187 -2.6640625 3.43359375 C-1 1 -1 1 0 0 Z " fill="#CEE0DC" transform="translate(101,63)"/>
<path d="M0 0 C4.1601704 5.06988825 7.6146008 10.47021652 11.125 16 C12.07439453 17.47726563 12.07439453 17.47726563 13.04296875 18.984375 C13.65011719 19.93828125 14.25726563 20.8921875 14.8828125 21.875 C15.43340332 22.73867187 15.98399414 23.60234375 16.55126953 24.4921875 C18 27 18 27 20 32 C6.8 32 -6.4 32 -20 32 C-19.34 30.68 -18.68 29.36 -18 28 C-17.34 28 -16.68 28 -16 28 C-16.04640625 27.18015625 -16.0928125 26.3603125 -16.140625 25.515625 C-16.17671875 24.43796875 -16.2128125 23.3603125 -16.25 22.25 C-16.29640625 21.18265625 -16.3428125 20.1153125 -16.390625 19.015625 C-15.91735478 15.36197888 -14.80844958 14.27771895 -12 12 C-10.02 14.97 -10.02 14.97 -8 18 C-7.29423828 16.80890625 -7.29423828 16.80890625 -6.57421875 15.59375 C-5.95160156 14.5728125 -5.32898438 13.551875 -4.6875 12.5 C-4.07261719 11.4790625 -3.45773438 10.458125 -2.82421875 9.40625 C-2.22222656 8.6121875 -1.62023437 7.818125 -1 7 C-0.01 7 0.98 7 2 7 C6 13.625 6 13.625 6 17 C6.66 17 7.32 17 8 17 C9.46582355 19.14281033 10.81123514 21.26706396 12.125 23.5 C12.49753906 24.12003906 12.87007812 24.74007812 13.25390625 25.37890625 C14.17578953 26.91537838 15.08873475 28.45720675 16 30 C15.34552918 26.4235799 13.85142154 23.8857348 11.91015625 20.83203125 C11.29076172 19.85685547 10.67136719 18.88167969 10.03320312 17.87695312 C9.38287109 16.86568359 8.73253906 15.85441406 8.0625 14.8125 C7.09280273 13.27819336 7.09280273 13.27819336 6.10351562 11.71289062 C3.26883942 6.61692729 3.26883942 6.61692729 -1 3 C-1.2475 3.70125 -1.495 4.4025 -1.75 5.125 C-3.16088026 8.37002459 -4.97895398 11.10316737 -7 14 C-7.33 13.34 -7.66 12.68 -8 12 C-6.6015625 9.43359375 -6.6015625 9.43359375 -4.625 6.4375 C-3.97789063 5.44621094 -3.33078125 4.45492187 -2.6640625 3.43359375 C-1 1 -1 1 0 0 Z " fill="#8DCDBF" transform="translate(101,63)"/>
<path d="M0 0 C0.99 0 1.98 0 3 0 C2.37606349 3.76119476 0.65226285 6.18960042 -1.5625 9.25 C-2.20316406 10.14203125 -2.84382812 11.0340625 -3.50390625 11.953125 C-3.99761719 12.62859375 -4.49132812 13.3040625 -5 14 C-4.01 14 -3.02 14 -2 14 C-1.7525 13.401875 -1.505 12.80375 -1.25 12.1875 C0.19192497 9.66413131 1.52549626 8.49969924 4 7 C4.99 7 5.98 7 7 7 C7.309375 6.21625 7.61875 5.4325 7.9375 4.625 C9 2 9 2 10 0 C10.66 0 11.32 0 12 0 C10.77472971 4.05281712 9.30119506 7.44360764 7 11 C7.33 11.33 7.66 11.66 8 12 C8.99 10.35 9.98 8.7 11 7 C12 10 12 10 11.0625 12.1875 C10.5365625 13.0846875 10.5365625 13.0846875 10 14 C10.66 14 11.32 14 12 14 C12.309375 13.21625 12.61875 12.4325 12.9375 11.625 C14 9 14 9 15 7 C16.98 7 18.96 7 21 7 C20.835 7.61875 20.67 8.2375 20.5 8.875 C19.92365356 10.96063386 19.92365356 10.96063386 20 13 C20.804375 12.195625 21.60875 11.39125 22.4375 10.5625 C26 7 26 7 28.5625 6.9375 C29.7690625 6.9684375 29.7690625 6.9684375 31 7 C30.67 7.804375 30.34 8.60875 30 9.4375 C28.93940959 11.69681125 28.93940959 11.69681125 29 13 C30.32 13 31.64 13 33 13 C32.34 12.67 31.68 12.34 31 12 C32.875 8.125 32.875 8.125 34 7 C35.66617115 6.95936168 37.33388095 6.957279 39 7 C39 7.66 39 8.32 39 9 C37.35 9.33 35.7 9.66 34 10 C34.99 10.66 35.98 11.32 37 12 C36.67 13.32 36.34 14.64 36 16 C34.948125 15.9175 33.89625 15.835 32.8125 15.75 C28.38282802 16.04047029 27.12253731 16.96419983 24 20 C23.401875 20.5775 22.80375 21.155 22.1875 21.75 C21.795625 22.1625 21.40375 22.575 21 23 C21 19 21 19 23 17 C20.69 16.67 18.38 16.34 16 16 C15.67 15.01 15.34 14.02 15 13 C14.01 14.485 14.01 14.485 13 16 C10.93701172 16.34057617 10.93701172 16.34057617 8.4296875 16.29296875 C7.53378906 16.28330078 6.63789063 16.27363281 5.71484375 16.26367188 C4.30912109 16.2259668 4.30912109 16.2259668 2.875 16.1875 C1.45767578 16.16719727 1.45767578 16.16719727 0.01171875 16.14648438 C-2.32608779 16.11106306 -4.66276237 16.06167271 -7 16 C-6.22960585 9.36825651 -4.82216149 4.82216149 0 0 Z " fill="#343469" transform="translate(134,104)"/>
<path d="M0 0 C0.66 0 1.32 0 2 0 C2.99 1.98 3.98 3.96 5 6 C4.01 7.32 3.02 8.64 2 10 C2.33 10.66 2.66 11.32 3 12 C2.34 12 1.68 12 1 12 C1 13.32 1 14.64 1 16 C1.66 16.33 2.32 16.66 3 17 C3 17.66 3 18.32 3 19 C2.34 19 1.68 19 1 19 C1 19.99 1 20.98 1 22 C-0.5 23.6875 -0.5 23.6875 -2 25 C-1.34 25.99 -0.68 26.98 0 28 C-0.66 28.99 -1.32 29.98 -2 31 C-4.7885289 31.22107787 -7.34653181 31.28107535 -10.125 31.1875 C-11.25615234 31.16719727 -11.25615234 31.16719727 -12.41015625 31.14648438 C-14.27374127 31.11109985 -16.13695978 31.05729167 -18 31 C-16.87464932 27.32177047 -15.73470856 24.25619049 -13.5 21.125 C-11.3890708 18.08923301 -9.3789115 15.01864119 -7.453125 11.86328125 C-7.00775391 11.13544434 -6.56238281 10.40760742 -6.10351562 9.65771484 C-5.20630337 8.18598897 -4.31430388 6.71107164 -3.42773438 5.23291016 C-2.33819473 3.45499496 -1.17513169 1.72254016 0 0 Z " fill="#D2E0DD" transform="translate(84,69)"/>
<path d="M0 0 C4.1601704 5.06988825 7.6146008 10.47021652 11.125 16 C12.07439453 17.47726563 12.07439453 17.47726563 13.04296875 18.984375 C13.65011719 19.93828125 14.25726563 20.8921875 14.8828125 21.875 C15.43340332 22.73867187 15.98399414 23.60234375 16.55126953 24.4921875 C18 27 18 27 20 32 C6.8 32 -6.4 32 -20 32 C-19.34 30.68 -18.68 29.36 -18 28 C-17.34 28 -16.68 28 -16 28 C-16.04640625 27.18015625 -16.0928125 26.3603125 -16.140625 25.515625 C-16.17671875 24.43796875 -16.2128125 23.3603125 -16.25 22.25 C-16.29640625 21.18265625 -16.3428125 20.1153125 -16.390625 19.015625 C-15.91735478 15.36197888 -14.80844958 14.27771895 -12 12 C-10.375 14.1875 -10.375 14.1875 -9 17 C-9.8125 19.8125 -9.8125 19.8125 -11 22 C-10.34 22.66 -9.68 23.32 -9 24 C-9.375 26.125 -9.375 26.125 -10 28 C-10.66 28 -11.32 28 -12 28 C-12 28.99 -12 29.98 -12 31 C-9.03 31 -6.06 31 -3 31 C-3 30.34 -3 29.68 -3 29 C-4.32 28.34 -5.64 27.68 -7 27 C-6.34 26.34 -5.68 25.68 -5 25 C-5.33 24.34 -5.66 23.68 -6 23 C-5.34 23 -4.68 23 -4 23 C-4 22.01 -4 21.02 -4 20 C-3.34 20 -2.68 20 -2 20 C-1.34 21.32 -0.68 22.64 0 24 C-0.33 24.33 -0.66 24.66 -1 25 C-0.34 25.66 0.32 26.32 1 27 C0.34 27.66 -0.32 28.32 -1 29 C-1.33 29.66 -1.66 30.32 -2 31 C4.27 30.67 10.54 30.34 17 30 C15.0851725 26.79055642 13.16820803 23.58242227 11.25 20.375 C10.71117188 19.47136719 10.17234375 18.56773438 9.6171875 17.63671875 C5.38684645 9.26034355 5.38684645 9.26034355 -1 3 C-1.2475 3.70125 -1.495 4.4025 -1.75 5.125 C-3.16088026 8.37002459 -4.97895398 11.10316737 -7 14 C-7.33 13.34 -7.66 12.68 -8 12 C-6.6015625 9.43359375 -6.6015625 9.43359375 -4.625 6.4375 C-3.97789063 5.44621094 -3.33078125 4.45492187 -2.6640625 3.43359375 C-1 1 -1 1 0 0 Z " fill="#3A406F" transform="translate(101,63)"/>
<path d="M0 0 C2.2477975 2.05233685 3.0022242 3.00667261 4 6 C2.85546875 8.04296875 2.85546875 8.04296875 1.1875 10.1875 C0.64480469 10.90292969 0.10210937 11.61835937 -0.45703125 12.35546875 C-1.22080078 13.16951172 -1.22080078 13.16951172 -2 14 C-2.66 14 -3.32 14 -4 14 C-4 14.763125 -4 15.52625 -4 16.3125 C-4 18.20833333 -4 20.10416667 -4 22 C-3.67 22.99 -3.34 23.98 -3 25 C-5.97 25 -8.94 25 -12 25 C-11.73958333 23.01432292 -11.47916667 21.02864583 -11.21875 19.04296875 C-10.946767 16.84528294 -10.946767 16.84528294 -11 14 C-9.85275818 12.85275818 -8.69905941 11.71115848 -7.51171875 10.60546875 C-4.53102283 7.43992347 -2.32129231 3.66141984 0 0 Z " fill="#82B7B4" transform="translate(101,69)"/>
<path d="M0 0 C-0.60694155 3.15330554 -1.6416665 5.18888867 -3.5625 7.75 C-4.24505859 8.67039062 -4.24505859 8.67039062 -4.94140625 9.609375 C-5.29074219 10.06828125 -5.64007813 10.5271875 -6 11 C-3.21770174 8.9132763 -1.01066183 7.01379766 1.125 4.25 C1.74375 3.5075 2.3625 2.765 3 2 C3.99 2 4.98 2 6 2 C4.33333333 5.33333333 2.66666667 8.66666667 1 12 C4.22420427 9.76096926 6.30156102 7.74735017 8.125 4.3125 C10 1 10 1 13 0 C12.50572177 4.5803116 10.80823934 6.86770881 7.75 10.25 C6.98171875 11.12140625 6.2134375 11.9928125 5.421875 12.890625 C2.83743176 15.1415917 1.36453253 15.68979487 -2 16 C-2.33 15.01 -2.66 14.02 -3 13 C-3.598125 13.495 -4.19625 13.99 -4.8125 14.5 C-7 16 -7 16 -10 16 C-9.48363204 11.55923552 -8.34207587 8.76768727 -6 5 C-6 4.01 -6 3.02 -6 2 C-2.25 0 -2.25 0 0 0 Z " fill="#171754" transform="translate(37,104)"/>
<path d="M0 0 C12.87 0 25.74 0 39 0 C38.67 1.32 38.34 2.64 38 4 C25.79 4 13.58 4 1 4 C0.67 2.68 0.34 1.36 0 0 Z " fill="#83C1B7" transform="translate(82,95)"/>
<path d="M0 0 C0.99 0 1.98 0 3 0 C2.37606349 3.76119476 0.65226285 6.18960042 -1.5625 9.25 C-2.20316406 10.14203125 -2.84382812 11.0340625 -3.50390625 11.953125 C-3.99761719 12.62859375 -4.49132812 13.3040625 -5 14 C-4.01 14 -3.02 14 -2 14 C-1.7525 13.401875 -1.505 12.80375 -1.25 12.1875 C0.19192497 9.66413131 1.52549626 8.49969924 4 7 C4.99 7 5.98 7 7 7 C7.309375 6.21625 7.61875 5.4325 7.9375 4.625 C9 2 9 2 10 0 C10.66 0 11.32 0 12 0 C11.04372949 3.16304862 10.13779207 5.79076018 8.3125 8.5625 C6.5066045 11.29581592 6.5066045 11.29581592 8 16 C3.05 16 -1.9 16 -7 16 C-6.00134352 9.00940462 -5.01394467 5.01394467 0 0 Z " fill="#272760" transform="translate(134,104)"/>
<path d="M0 0 C0.66 1.32 1.32 2.64 2 4 C1.01 4.33 0.02 4.66 -1 5 C-2.69882448 7.49759982 -2.69882448 7.49759982 -4 10 C-3.67 10.33 -3.34 10.66 -3 11 C-2.2575 10.01 -1.515 9.02 -0.75 8 C0.515625 6.3125 0.515625 6.3125 2 5 C3.32 5 4.64 5 6 5 C5.67 6.32 5.34 7.64 5 9 C4.67 8.34 4.34 7.68 4 7 C0.75150023 8.72226496 0.75150023 8.72226496 0 12 C4.95696581 10.76075855 7.11658466 9.21422242 10 5 C11.32 5.33 12.64 5.66 14 6 C13.49907829 9.70682067 12.96297592 11.65715228 10 14 C8.09887695 14.34057617 8.09887695 14.34057617 5.98828125 14.29296875 C5.23095703 14.28330078 4.47363281 14.27363281 3.69335938 14.26367188 C2.51483398 14.2259668 2.51483398 14.2259668 1.3125 14.1875 C0.11657227 14.16719727 0.11657227 14.16719727 -1.10351562 14.14648438 C-3.06929967 14.11117089 -5.03473582 14.05736447 -7 14 C-6.52334387 11.37405807 -6.12998892 9.24553463 -4.875 6.875 C-3.66806769 4.84955586 -3.66806769 4.84955586 -5 2 C-3.35 1.34 -1.7 0.68 0 0 Z " fill="#2E2E65" transform="translate(68,106)"/>
<path d="M0 0 C-1.875 4.75 -1.875 4.75 -3 7 C-0.71471005 7.58768383 -0.71471005 7.58768383 2 7 C3.52020943 5.27680806 4.69204688 3.49253541 5.88671875 1.53125 C6.43779297 0.77328125 6.43779297 0.77328125 7 0 C7.66 0 8.32 0 9 0 C7.56874399 3.91448518 5.72488708 7.29133338 3.5 10.8125 C2.58734375 12.27623047 2.58734375 12.27623047 1.65625 13.76953125 C1.1096875 14.50558594 0.563125 15.24164063 0 16 C-0.66 16 -1.32 16 -2 16 C-1.34 14.02 -0.68 12.04 0 10 C-1.98 10 -3.96 10 -6 10 C-6.4021875 11.2065625 -6.4021875 11.2065625 -6.8125 12.4375 C-7.4003125 13.7059375 -7.4003125 13.7059375 -8 15 C-8.99 15.33 -9.98 15.66 -11 16 C-10.649375 15.05125 -10.29875 14.1025 -9.9375 13.125 C-8.64973223 10.12939828 -8.64973223 10.12939828 -10 8 C-8.68 8 -7.36 8 -6 8 C-5.67 7.01 -5.34 6.02 -5 5 C-5.99 4.67 -6.98 4.34 -8 4 C-8 3.34 -8 2.68 -8 2 C-2.25 0 -2.25 0 0 0 Z " fill="#2E2E65" transform="translate(114,104)"/>
<path d="M0 0 C3.88475459 1.2949182 4.40800277 2.79386896 6.5390625 6.2421875 C7.53292969 7.84126953 7.53292969 7.84126953 8.546875 9.47265625 C9.23265625 10.59542969 9.9184375 11.71820313 10.625 12.875 C11.31851563 13.99003906 12.01203125 15.10507813 12.7265625 16.25390625 C17.84961766 24.54885299 17.84961766 24.54885299 19 28 C15.14325624 26.5243763 13.78176265 24.52993107 11.75 21 C11.22921875 20.113125 10.7084375 19.22625 10.171875 18.3125 C9 16 9 16 9 14 C8.34 14 7.68 14 7 14 C5.35 10.7 3.7 7.4 2 4 C-0.62196431 6.62196431 -1.97572835 8.4952772 -3.6875 11.6875 C-4.12449219 12.49574219 -4.56148438 13.30398437 -5.01171875 14.13671875 C-5.33785156 14.75160156 -5.66398437 15.36648437 -6 16 C-7.32 15.34 -8.64 14.68 -10 14 C-8.37834055 11.81075974 -6.72861676 9.66925168 -5 7.5625 C-3.10363787 5.13278602 -1.52742545 2.67299454 0 0 Z " fill="#E8EEEF" transform="translate(100,66)"/>
<path d="M0 0 C2.1875 1.875 2.1875 1.875 4 5 C3.46699568 8.50989014 2.23467327 11.6841744 1 15 C0.64713572 16.32829804 0.30632741 17.66020434 0 19 C-1.65 19 -3.3 19 -5 19 C-4.855625 18.41992188 -4.71125 17.83984375 -4.5625 17.2421875 C-3.70005164 13.61271732 -2.99174195 10.43767677 -3.0625 6.6875 C-2.98800996 3.48442816 -2.13732653 2.31543707 0 0 Z " fill="#26275F" transform="translate(88,75)"/>
<path d="M0 0 C0 0.66 0 1.32 0 2 C-0.99 2.33 -1.98 2.66 -3 3 C-2.67 3.66 -2.34 4.32 -2 5 C-2.99 5.99 -3.98 6.98 -5 8 C-3.02 7.34 -1.04 6.68 1 6 C1 5.67 1 5.34 1 5 C1.32380126 3.66431979 1.65657551 2.33076989 2 1 C5.465 0.505 5.465 0.505 9 0 C9 0.66 9 1.32 9 2 C7.35 2.33 5.7 2.66 4 3 C4.99 3.66 5.98 4.32 7 5 C6.34 6.32 5.68 7.64 5 9 C1.04 9 -2.92 9 -7 9 C-6.6875 5.625 -6.6875 5.625 -6 2 C-3 0 -3 0 0 0 Z " fill="#272760" transform="translate(53,111)"/>
<path d="M0 0 C-0.60694155 3.15330554 -1.6416665 5.18888867 -3.5625 7.75 C-4.24505859 8.67039062 -4.24505859 8.67039062 -4.94140625 9.609375 C-5.29074219 10.06828125 -5.64007813 10.5271875 -6 11 C-4.68 10.67 -3.36 10.34 -2 10 C-1.67 10.66 -1.34 11.32 -1 12 C-6.625 16 -6.625 16 -10 16 C-9.48363204 11.55923552 -8.34207587 8.76768727 -6 5 C-6 4.01 -6 3.02 -6 2 C-2.25 0 -2.25 0 0 0 Z " fill="#27275F" transform="translate(37,104)"/>
<path d="M0 0 C1.32 0.33 2.64 0.66 4 1 C3.65447612 3.55687669 3.24912987 5.57501375 1.9375 7.8125 C-1.32922489 9.81468623 -4.22283644 9.29977489 -8 9 C-8.66 8.34 -9.32 7.68 -10 7 C-9.0925 6.773125 -8.185 6.54625 -7.25 6.3125 C-3.55111676 4.81872023 -2.22094342 3.24599423 0 0 Z " fill="#585883" transform="translate(78,111)"/>
<path d="M0 0 C0.86625 0.37125 0.86625 0.37125 1.75 0.75 C1.2090069 4.53695173 -0.28432464 6.37745972 -3.25 8.75 C-4.57 8.75 -5.89 8.75 -7.25 8.75 C-6.89947365 5.59526281 -6.38480924 3.9266466 -4.4375 1.375 C-2.25 -0.25 -2.25 -0.25 0 0 Z " fill="#78789B" transform="translate(125.25,111.25)"/>
<path d="M0 0 C0.66 0 1.32 0 2 0 C0.56874399 3.91448518 -1.27511292 7.29133338 -3.5 10.8125 C-4.1084375 11.78832031 -4.716875 12.76414062 -5.34375 13.76953125 C-5.8903125 14.50558594 -6.436875 15.24164063 -7 16 C-7.66 16 -8.32 16 -9 16 C-7.125 11.25 -7.125 11.25 -6 9 C-7.98 9 -9.96 9 -12 9 C-12 8.67 -12 8.34 -12 8 C-10.4221875 7.9690625 -10.4221875 7.9690625 -8.8125 7.9375 C-4.72642728 6.93272802 -4.37718378 6.68924597 -2.1875 3.4375 C-1.80980469 2.79683594 -1.43210937 2.15617187 -1.04296875 1.49609375 C-0.69878906 1.00238281 -0.35460937 0.50867188 0 0 Z " fill="#171754" transform="translate(121,104)"/>
<path d="M0 0 C0.99 0 1.98 0 3 0 C2.53234153 4.7190991 0.65065406 6.91832317 -2.5625 10.3125 C-3.38878906 11.19550781 -4.21507812 12.07851562 -5.06640625 12.98828125 C-5.70449219 13.65214844 -6.34257813 14.31601563 -7 15 C-7.99 14.34 -8.98 13.68 -10 13 C-9.0925 12.319375 -8.185 11.63875 -7.25 10.9375 C-3.76922214 8.05884722 -2.01071808 5.02143616 0 1 C0 0.67 0 0.34 0 0 Z " fill="#26265F" transform="translate(47,104)"/>
<path d="M0 0 C1 3 1 3 0.0625 5.1875 C-0.4634375 6.0846875 -0.4634375 6.0846875 -1 7 C-0.34 7 0.32 7 1 7 C1.433125 5.7934375 1.433125 5.7934375 1.875 4.5625 C3 2 3 2 5 1 C4.45276317 4.37462715 3.9451 6.08235 2 9 C-0.625 9.1875 -0.625 9.1875 -3 9 C-3 4.72290301 -2.29379749 3.44069624 0 0 Z " fill="#22225C" transform="translate(145,111)"/>
<path d="M0 0 C0.99 0 1.98 0 3 0 C4.70694877 2.47640237 6.21370012 4.8908806 7.6875 7.5 C8.10322266 8.21542969 8.51894531 8.93085937 8.94726562 9.66796875 C9.974798 11.43957629 10.98869236 13.21908088 12 15 C11.01 15 10.02 15 9 15 C7.17578125 12.6640625 7.17578125 12.6640625 5.3125 9.625 C4.68988281 8.62726563 4.06726563 7.62953125 3.42578125 6.6015625 C2 4 2 4 2 2 C1.34 2 0.68 2 0 2 C0 1.34 0 0.68 0 0 Z " fill="#BFD4D2" transform="translate(107,78)"/>
<path d="M0 0 C1.9375 0.6875 1.9375 0.6875 4 2 C4.75 4.625 4.75 4.625 5 7 C1.28400809 7.20086443 0.22791555 7.1519437 -3 5 C-1.125 1.125 -1.125 1.125 0 0 Z " fill="#5F5F89" transform="translate(137,113)"/>
<path d="M0 0 C1.32 0 2.64 0 4 0 C3.34 1.98 2.68 3.96 2 6 C1.34 5.67 0.68 5.34 0 5 C-1.32 6.98 -2.64 8.96 -4 11 C-5 8 -5 8 -4.14453125 5.95703125 C-3.70496094 5.24933594 -3.26539063 4.54164062 -2.8125 3.8125 C-2.38582031 3.09707031 -1.95914063 2.38164063 -1.51953125 1.64453125 C-1.01808594 1.10183594 -0.51664063 0.55914062 0 0 Z " fill="#C2C2D1" transform="translate(145,107)"/>
<path d="M0 0 C1.2065625 0.0309375 1.2065625 0.0309375 2.4375 0.0625 C2.4375 0.7225 2.4375 1.3825 2.4375 2.0625 C0.7875 2.3925 -0.8625 2.7225 -2.5625 3.0625 C-1.5725 3.7225 -0.5825 4.3825 0.4375 5.0625 C0.1075 6.3825 -0.2225 7.7025 -0.5625 9.0625 C-1.8825 8.7325 -3.2025 8.4025 -4.5625 8.0625 C-3.9025 7.7325 -3.2425 7.4025 -2.5625 7.0625 C-3.5525 6.4025 -4.5425 5.7425 -5.5625 5.0625 C-3.15007962 0.07683121 -3.15007962 0.07683121 0 0 Z " fill="#282860" transform="translate(170.5625,110.9375)"/>
<path d="M0 0 C1.1446875 0.12375 1.1446875 0.12375 2.3125 0.25 C1.9825 1.57 1.6525 2.89 1.3125 4.25 C0.714375 4.3325 0.11625 4.415 -0.5 4.5 C-3.286843 5.45548903 -4.01626986 6.8950848 -5.6875 9.25 C-6.3475 9.25 -7.0075 9.25 -7.6875 9.25 C-4.49832888 0.4184492 -4.49832888 0.4184492 0 0 Z " fill="#24245E" transform="translate(88.6875,110.75)"/>
<path d="M0 0 C0 0.66 0 1.32 0 2 C-0.99 2.33 -1.98 2.66 -3 3 C-2.67 3.66 -2.34 4.32 -2 5 C-2.99 5.99 -3.98 6.98 -5 8 C-3.02 7.34 -1.04 6.68 1 6 C0.01 7.485 0.01 7.485 -1 9 C-4.125 9.1875 -4.125 9.1875 -7 9 C-6.39285714 3.53571429 -6.39285714 3.53571429 -4.625 1.125 C-3 0 -3 0 0 0 Z " fill="#2A2A62" transform="translate(97,111)"/>
<path d="M0 0 C-0.33 0.66 -0.66 1.32 -1 2 C-1.66 1.67 -2.32 1.34 -3 1 C-3.2475 1.61875 -3.495 2.2375 -3.75 2.875 C-5.20628639 5.35068687 -6.37812506 5.95125002 -9 7 C-9 3 -9 3 -7.3125 1.25 C-4.64865849 -0.18991433 -2.98355176 -0.24862931 0 0 Z " fill="#696990" transform="translate(165,111)"/>
<path d="M0 0 C0.33 0 0.66 0 1 0 C1.103125 0.78375 1.20625 1.5675 1.3125 2.375 C1.77595022 5.33045181 1.77595022 5.33045181 5 7 C3.63875 6.9690625 3.63875 6.9690625 2.25 6.9375 C-0.42672588 6.9889755 -2.46988052 7.2215017 -5 8 C-4.34 6.02 -3.68 4.04 -3 2 C-2.01 2 -1.02 2 0 2 C0 1.34 0 0.68 0 0 Z " fill="#D3D3DD" transform="translate(53,111)"/>
<path d="M0 0 C0.66 1.32 1.32 2.64 2 4 C1.01 4.33 0.02 4.66 -1 5 C-2.22445284 6.62948064 -2.22445284 6.62948064 -3.1875 8.5625 C-3.785625 9.696875 -4.38375 10.83125 -5 12 C-5.33 11.01 -5.66 10.02 -6 9 C-5.33333333 7.66666667 -4.66666667 6.33333333 -4 5 C-4.33 4.01 -4.66 3.02 -5 2 C-3.35 1.34 -1.7 0.68 0 0 Z " fill="#21215B" transform="translate(68,106)"/>
<path d="M0 0 C0.99 0 1.98 0 3 0 C2.82374165 2.37948772 2.30280227 3.70225849 0.59765625 5.37890625 C-0.90649092 6.62115486 -2.45129851 7.81376056 -4 9 C-4 4.32165993 -3.1782099 3.2690159 0 0 Z " fill="#535380" transform="translate(134,104)"/>
<path d="M0 0 C0.66 0.66 1.32 1.32 2 2 C0.8125 4 0.8125 4 -1 6 C-3.6875 6.25 -3.6875 6.25 -6 6 C-5.67 4.68 -5.34 3.36 -5 2 C-3.68 2 -2.36 2 -1 2 C-0.67 1.34 -0.34 0.68 0 0 Z " fill="#E8E8ED" transform="translate(74,112)"/>
<path d="M0 0 C0.4125 0.474375 0.825 0.94875 1.25 1.4375 C3.182185 3.16266518 4.48192275 3.56584875 7 4 C7 4.66 7 5.32 7 6 C4.03 6 1.06 6 -2 6 C-1.125 1.125 -1.125 1.125 0 0 Z " fill="#7AA4AB" transform="translate(91,88)"/>
<path d="M0 0 C0.66 0 1.32 0 2 0 C2.66 1.32 3.32 2.64 4 4 C3.67 4.33 3.34 4.66 3 5 C3.66 5.66 4.32 6.32 5 7 C2.36 7 -0.28 7 -3 7 C-2.34 6.34 -1.68 5.68 -1 5 C-1.33 4.34 -1.66 3.68 -2 3 C-1.34 3 -0.68 3 0 3 C0 2.01 0 1.02 0 0 Z " fill="#3C4873" transform="translate(97,83)"/>
<path d="M0 0 C0.99 0 1.98 0 3 0 C3 2.64 3 5.28 3 8 C1.35 8 -0.3 8 -2 8 C-1.34 5.36 -0.68 2.72 0 0 Z " fill="#8093A5" transform="translate(85,86)"/>
<path d="M0 0 C0 0.66 0 1.32 0 2 C-1.65 2.33 -3.3 2.66 -5 3 C-4.34 3.66 -3.68 4.32 -3 5 C-4.32 5.33 -5.64 5.66 -7 6 C-7.33 4.68 -7.66 3.36 -8 2 C-4.77208445 -0.1519437 -3.71599191 -0.20086443 0 0 Z " fill="#37376B" transform="translate(62,111)"/>
<path d="M0 0 C0.66 0.66 1.32 1.32 2 2 C0.68 4.31 -0.64 6.62 -2 9 C-3.32 8.34 -4.64 7.68 -6 7 C-4.15794162 4.45620509 -2.27521866 2.16687491 0 0 Z " fill="#DBE2E5" transform="translate(96,73)"/>
<path d="M0 0 C0.66 0 1.32 0 2 0 C2 0.66 2 1.32 2 2 C6.95 2 11.9 2 17 2 C17 2.33 17 2.66 17 3 C11.06 3 5.12 3 -1 3 C-0.67 2.01 -0.34 1.02 0 0 Z " fill="#7FB5B2" transform="translate(100,91)"/>
<path d="M0 0 C0.33 0.66 0.66 1.32 1 2 C-4.625 6 -4.625 6 -8 6 C-7.67 4.68 -7.34 3.36 -7 2 C-6.401875 1.855625 -5.80375 1.71125 -5.1875 1.5625 C-3.43849596 1.1127561 -1.71322977 0.57107659 0 0 Z " fill="#303066" transform="translate(35,114)"/>
<path d="M0 0 C0.66 0.33 1.32 0.66 2 1 C0.55746343 4.36591866 -1.33264727 6.51047079 -4 9 C-3.46930939 5.17902761 -2.50298434 2.93828597 0 0 Z " fill="#D6D6DF" transform="translate(67,110)"/>
<path d="M0 0 C0.66 0.66 1.32 1.32 2 2 C0.35 3.98 -1.3 5.96 -3 8 C-3.66 7.67 -4.32 7.34 -5 7 C-3.70700306 4.11562221 -2.34058637 2.12780579 0 0 Z " fill="#1D1D58" transform="translate(159,119)"/>
<path d="M0 0 C0.66 0 1.32 0 2 0 C0.90931332 3.77545388 0.0916909 6.47043472 -3 9 C-3.99 8.34 -4.98 7.68 -6 7 C-5.01 7 -4.02 7 -3 7 C-2.690625 6.21625 -2.38125 5.4325 -2.0625 4.625 C-1 2 -1 2 0 0 Z " fill="#37376C" transform="translate(144,104)"/>
<path d="M0 0 C0.66 0 1.32 0 2 0 C0.87548273 2.9719385 -0.22293791 5.33440687 -2 8 C-2.99 7.67 -3.98 7.34 -5 7 C-4.21654285 5.82780457 -3.42297164 4.66236332 -2.625 3.5 C-2.18414062 2.8503125 -1.74328125 2.200625 -1.2890625 1.53125 C-0.65097656 0.77328125 -0.65097656 0.77328125 0 0 Z " fill="#2B2B63" transform="translate(121,104)"/>
<path d="M0 0 C0.66 0 1.32 0 2 0 C1.45773019 3.79588866 -0.20127563 5.47211993 -3 8 C-3.99 7.67 -4.98 7.34 -6 7 C-5.195625 6.401875 -4.39125 5.80375 -3.5625 5.1875 C-0.77672016 3.19052724 -0.77672016 3.19052724 0 0 Z " fill="#2B2B63" transform="translate(125,112)"/>
<path d="M0 0 C0.33 0 0.66 0 1 0 C1 2.64 1 5.28 1 8 C0.01 8 -0.98 8 -2 8 C-2.125 5.125 -2.125 5.125 -2 2 C-1.34 1.34 -0.68 0.68 0 0 Z " fill="#717796" transform="translate(87,77)"/>
<path d="M0 0 C-0.99 1.32 -1.98 2.64 -3 4 C-3.99 3.34 -4.98 2.68 -6 2 C-5.01 2 -4.02 2 -3 2 C-3 1.34 -3 0.68 -3 0 C-4.32 -0.33 -5.64 -0.66 -7 -1 C-3.51418144 -2.2020064 -3.32007656 -2.21338437 0 0 Z " fill="#C3C3D2" transform="translate(65,111)"/>
</svg>
